M48
METRIC,LZ,000.000
;FILE_FORMAT=3:3
;TYPE=PLATED
;Layer: PTH_Through
;EasyEDA v6.4.31, 2022-03-01 11:20:37
;6713203271664cd18529d9af3764870e,10
;Gerber Generator version 0.2
;Holesize 1 = 0.501 mm
T01C0.501
;Holesize 2 = 0.701 mm
T02C0.701
;Holesize 3 = 0.762 mm
T03C0.762
;Holesize 4 = 0.915 mm
T04C0.915
%
G05
G90
T01
X066040Y027940
X068580Y027940
T02
X066180Y007324G85X066186Y007324
X068180Y007324G85X068186Y007324
T03
X070612Y014732
X070612Y017272
X070612Y019812
X070612Y022352
X063246Y022352
X063246Y019812
X063246Y017272
X063246Y014732
X063246Y012192
X070612Y012192
T04
X055118Y008001
X052578Y008001
X050038Y008001
X047498Y008001
X044958Y008001
X042418Y008001
X039878Y008001
X037338Y008001
X034798Y008001
X032258Y008001
X029718Y008001
X027178Y008001
X024638Y008001
X022098Y008001
X019558Y008001
X017018Y008001
X055118Y028321
X052578Y028321
X050038Y028321
X047498Y028321
X044958Y028321
X042418Y028321
X039878Y028321
X037338Y028321
X034798Y028321
X032258Y028321
X029718Y028321
X027178Y028321
M30
