G04 Layer: TopSilkscreenLayer*
G04 EasyEDA v6.4.31, 2022-03-09 14:54:07*
G04 Gerber Generator version 0.2*
G04 Scale: 100 percent, Rotated: No, Reflected: No *
G04 Dimensions in millimeters *
G04 leading zeros omitted , absolute positions ,4 integer and 5 decimal *
%FSLAX45Y45*%
%MOMM*%

%ADD10C,0.2540*%
%ADD18C,0.2032*%
%ADD19C,0.1524*%
%ADD20C,0.2007*%
%ADD21C,0.1520*%

%LPD*%
D19*
X6770370Y1182115D02*
G01*
X6770370Y1099057D01*
X6765036Y1083310D01*
X6759956Y1078229D01*
X6749541Y1073150D01*
X6739127Y1073150D01*
X6728713Y1078229D01*
X6723379Y1083310D01*
X6718300Y1099057D01*
X6718300Y1109471D01*
X6804659Y1182115D02*
G01*
X6804659Y1073150D01*
X6804659Y1182115D02*
G01*
X6851395Y1182115D01*
X6866890Y1177036D01*
X6871970Y1171702D01*
X6877304Y1161287D01*
X6877304Y1145794D01*
X6871970Y1135379D01*
X6866890Y1130300D01*
X6851395Y1124965D01*
X6804659Y1124965D01*
X6911593Y1161287D02*
G01*
X6922008Y1166621D01*
X6937502Y1182115D01*
X6937502Y1073150D01*
X1600200Y994155D02*
G01*
X1600200Y921257D01*
X1600200Y994155D02*
G01*
X1631442Y994155D01*
X1641855Y990600D01*
X1645157Y987044D01*
X1648713Y980186D01*
X1648713Y973328D01*
X1645157Y966470D01*
X1641855Y962913D01*
X1631442Y959357D01*
X1600200Y959357D01*
X1624329Y959357D02*
G01*
X1648713Y921257D01*
X1720087Y983742D02*
G01*
X1713229Y990600D01*
X1702815Y994155D01*
X1688845Y994155D01*
X1678431Y990600D01*
X1671573Y983742D01*
X1671573Y976629D01*
X1675129Y969771D01*
X1678431Y966470D01*
X1685289Y962913D01*
X1706118Y956055D01*
X1713229Y952500D01*
X1716531Y948944D01*
X1720087Y942086D01*
X1720087Y931671D01*
X1713229Y924813D01*
X1702815Y921257D01*
X1688845Y921257D01*
X1678431Y924813D01*
X1671573Y931671D01*
X1767078Y994155D02*
G01*
X1767078Y921257D01*
X1742947Y994155D02*
G01*
X1791462Y994155D01*
X2135886Y994155D02*
G01*
X2108200Y921257D01*
X2135886Y994155D02*
G01*
X2163572Y921257D01*
X2118613Y945642D02*
G01*
X2153158Y945642D01*
X2186431Y994155D02*
G01*
X2186431Y921257D01*
X2186431Y994155D02*
G01*
X2217674Y994155D01*
X2228088Y990600D01*
X2231390Y987044D01*
X2234945Y980186D01*
X2234945Y973328D01*
X2231390Y966470D01*
X2228088Y962913D01*
X2217674Y959357D01*
X2186431Y959357D01*
X2210815Y959357D02*
G01*
X2234945Y921257D01*
X2285491Y994155D02*
G01*
X2278634Y994155D01*
X2271775Y990600D01*
X2268220Y980186D01*
X2268220Y921257D01*
X2257806Y969771D02*
G01*
X2282190Y969771D01*
X1911857Y994155D02*
G01*
X1949958Y994155D01*
X1929129Y966470D01*
X1939543Y966470D01*
X1946656Y962913D01*
X1949958Y959357D01*
X1953513Y948944D01*
X1953513Y942086D01*
X1949958Y931671D01*
X1943100Y924813D01*
X1932686Y921257D01*
X1922271Y921257D01*
X1911857Y924813D01*
X1908555Y928370D01*
X1905000Y935228D01*
X1976374Y994155D02*
G01*
X2004059Y921257D01*
X2031745Y994155D02*
G01*
X2004059Y921257D01*
X3937000Y994155D02*
G01*
X3937000Y921257D01*
X3937000Y994155D02*
G01*
X3985513Y921257D01*
X3985513Y994155D02*
G01*
X3985513Y921257D01*
X4060190Y976629D02*
G01*
X4056888Y983742D01*
X4050029Y990600D01*
X4042918Y994155D01*
X4029202Y994155D01*
X4022090Y990600D01*
X4015231Y983742D01*
X4011929Y976629D01*
X4008374Y966470D01*
X4008374Y948944D01*
X4011929Y938529D01*
X4015231Y931671D01*
X4022090Y924813D01*
X4029202Y921257D01*
X4042918Y921257D01*
X4050029Y924813D01*
X4056888Y931671D01*
X4060190Y938529D01*
X3683000Y994155D02*
G01*
X3683000Y921257D01*
X3683000Y994155D02*
G01*
X3731513Y921257D01*
X3731513Y994155D02*
G01*
X3731513Y921257D01*
X3806190Y976629D02*
G01*
X3802888Y983742D01*
X3796029Y990600D01*
X3788918Y994155D01*
X3775202Y994155D01*
X3768090Y990600D01*
X3761231Y983742D01*
X3757929Y976629D01*
X3754374Y966470D01*
X3754374Y948944D01*
X3757929Y938529D01*
X3761231Y931671D01*
X3768090Y924813D01*
X3775202Y921257D01*
X3788918Y921257D01*
X3796029Y924813D01*
X3802888Y931671D01*
X3806190Y938529D01*
X3429000Y994155D02*
G01*
X3429000Y921257D01*
X3429000Y994155D02*
G01*
X3477513Y921257D01*
X3477513Y994155D02*
G01*
X3477513Y921257D01*
X3552190Y976629D02*
G01*
X3548888Y983742D01*
X3542029Y990600D01*
X3534918Y994155D01*
X3521202Y994155D01*
X3514090Y990600D01*
X3507231Y983742D01*
X3503929Y976629D01*
X3500374Y966470D01*
X3500374Y948944D01*
X3503929Y938529D01*
X3507231Y931671D01*
X3514090Y924813D01*
X3521202Y921257D01*
X3534918Y921257D01*
X3542029Y924813D01*
X3548888Y931671D01*
X3552190Y938529D01*
X3175000Y994155D02*
G01*
X3175000Y921257D01*
X3175000Y994155D02*
G01*
X3223513Y921257D01*
X3223513Y994155D02*
G01*
X3223513Y921257D01*
X3298190Y976629D02*
G01*
X3294888Y983742D01*
X3288029Y990600D01*
X3280918Y994155D01*
X3267202Y994155D01*
X3260090Y990600D01*
X3253231Y983742D01*
X3249929Y976629D01*
X3246374Y966470D01*
X3246374Y948944D01*
X3249929Y938529D01*
X3253231Y931671D01*
X3260090Y924813D01*
X3267202Y921257D01*
X3280918Y921257D01*
X3288029Y924813D01*
X3294888Y931671D01*
X3298190Y938529D01*
X2921000Y994155D02*
G01*
X2921000Y921257D01*
X2921000Y994155D02*
G01*
X2969513Y921257D01*
X2969513Y994155D02*
G01*
X2969513Y921257D01*
X3044190Y976629D02*
G01*
X3040888Y983742D01*
X3034029Y990600D01*
X3026918Y994155D01*
X3013202Y994155D01*
X3006090Y990600D01*
X2999231Y983742D01*
X2995929Y976629D01*
X2992374Y966470D01*
X2992374Y948944D01*
X2995929Y938529D01*
X2999231Y931671D01*
X3006090Y924813D01*
X3013202Y921257D01*
X3026918Y921257D01*
X3034029Y924813D01*
X3040888Y931671D01*
X3044190Y938529D01*
X2694686Y994155D02*
G01*
X2667000Y921257D01*
X2694686Y994155D02*
G01*
X2722372Y921257D01*
X2677413Y945642D02*
G01*
X2711958Y945642D01*
X2745231Y994155D02*
G01*
X2745231Y921257D01*
X2745231Y994155D02*
G01*
X2769615Y994155D01*
X2780029Y990600D01*
X2786888Y983742D01*
X2790190Y976629D01*
X2793745Y966470D01*
X2793745Y948944D01*
X2790190Y938529D01*
X2786888Y931671D01*
X2780029Y924813D01*
X2769615Y921257D01*
X2745231Y921257D01*
X2868675Y976629D02*
G01*
X2865120Y983742D01*
X2858261Y990600D01*
X2851150Y994155D01*
X2837434Y994155D01*
X2830575Y990600D01*
X2823463Y983742D01*
X2820161Y976629D01*
X2816606Y966470D01*
X2816606Y948944D01*
X2820161Y938529D01*
X2823463Y931671D01*
X2830575Y924813D01*
X2837434Y921257D01*
X2851150Y921257D01*
X2858261Y924813D01*
X2865120Y931671D01*
X2868675Y938529D01*
X4191000Y2716529D02*
G01*
X4197858Y2720086D01*
X4208272Y2730500D01*
X4208272Y2657602D01*
X4272788Y2730500D02*
G01*
X4237990Y2730500D01*
X4234688Y2699257D01*
X4237990Y2702813D01*
X4248404Y2706115D01*
X4258818Y2706115D01*
X4269231Y2702813D01*
X4276090Y2695702D01*
X4279645Y2685287D01*
X4279645Y2678429D01*
X4276090Y2668015D01*
X4269231Y2661157D01*
X4258818Y2657602D01*
X4248404Y2657602D01*
X4237990Y2661157D01*
X4234688Y2664713D01*
X4231131Y2671571D01*
X4465827Y2730500D02*
G01*
X4455413Y2726944D01*
X4448556Y2716529D01*
X4445000Y2699257D01*
X4445000Y2688844D01*
X4448556Y2671571D01*
X4455413Y2661157D01*
X4465827Y2657602D01*
X4472686Y2657602D01*
X4483100Y2661157D01*
X4489958Y2671571D01*
X4493513Y2688844D01*
X4493513Y2699257D01*
X4489958Y2716529D01*
X4483100Y2726944D01*
X4472686Y2730500D01*
X4465827Y2730500D01*
X4169156Y983742D02*
G01*
X4162297Y990600D01*
X4151884Y994155D01*
X4137913Y994155D01*
X4127500Y990600D01*
X4120641Y983742D01*
X4120641Y976629D01*
X4124197Y969771D01*
X4127500Y966470D01*
X4134611Y962913D01*
X4155186Y956055D01*
X4162297Y952500D01*
X4165600Y948944D01*
X4169156Y942086D01*
X4169156Y931671D01*
X4162297Y924813D01*
X4151884Y921257D01*
X4137913Y921257D01*
X4127500Y924813D01*
X4120641Y931671D01*
X4243831Y976629D02*
G01*
X4240529Y983742D01*
X4233672Y990600D01*
X4226559Y994155D01*
X4212843Y994155D01*
X4205731Y990600D01*
X4198874Y983742D01*
X4195572Y976629D01*
X4192015Y966470D01*
X4192015Y948944D01*
X4195572Y938529D01*
X4198874Y931671D01*
X4205731Y924813D01*
X4212843Y921257D01*
X4226559Y921257D01*
X4233672Y924813D01*
X4240529Y931671D01*
X4243831Y938529D01*
X4266691Y994155D02*
G01*
X4266691Y921257D01*
X4315206Y994155D02*
G01*
X4266691Y945642D01*
X4284218Y962913D02*
G01*
X4315206Y921257D01*
X4420108Y994155D02*
G01*
X4420108Y921257D01*
X4420108Y994155D02*
G01*
X4447793Y921257D01*
X4475479Y994155D02*
G01*
X4447793Y921257D01*
X4475479Y994155D02*
G01*
X4475479Y921257D01*
X4519168Y994155D02*
G01*
X4512309Y990600D01*
X4505197Y983742D01*
X4501895Y976629D01*
X4498340Y966470D01*
X4498340Y948944D01*
X4501895Y938529D01*
X4505197Y931671D01*
X4512309Y924813D01*
X4519168Y921257D01*
X4533138Y921257D01*
X4539995Y924813D01*
X4546854Y931671D01*
X4550409Y938529D01*
X4553711Y948944D01*
X4553711Y966470D01*
X4550409Y976629D01*
X4546854Y983742D01*
X4539995Y990600D01*
X4533138Y994155D01*
X4519168Y994155D01*
X4724908Y994155D02*
G01*
X4724908Y921257D01*
X4724908Y994155D02*
G01*
X4752593Y921257D01*
X4780279Y994155D02*
G01*
X4752593Y921257D01*
X4780279Y994155D02*
G01*
X4780279Y921257D01*
X4803140Y994155D02*
G01*
X4803140Y921257D01*
X5197856Y2716784D02*
G01*
X5163058Y2716784D01*
X5159756Y2685542D01*
X5163058Y2689097D01*
X5173472Y2692400D01*
X5183886Y2692400D01*
X5194300Y2689097D01*
X5201158Y2681986D01*
X5204713Y2671571D01*
X5204713Y2664713D01*
X5201158Y2654300D01*
X5194300Y2647442D01*
X5183886Y2643886D01*
X5173472Y2643886D01*
X5163058Y2647442D01*
X5159756Y2650997D01*
X5156200Y2657855D01*
X5289804Y2730500D02*
G01*
X5227574Y2619755D01*
X5204713Y2528570D02*
G01*
X5197856Y2535428D01*
X5187441Y2538984D01*
X5173472Y2538984D01*
X5163058Y2535428D01*
X5156200Y2528570D01*
X5156200Y2521457D01*
X5159756Y2514600D01*
X5163058Y2511297D01*
X5170170Y2507742D01*
X5190743Y2500884D01*
X5197856Y2497328D01*
X5201158Y2493771D01*
X5204713Y2486913D01*
X5204713Y2476500D01*
X5197856Y2469642D01*
X5187441Y2466086D01*
X5173472Y2466086D01*
X5163058Y2469642D01*
X5156200Y2476500D01*
X5279390Y2521457D02*
G01*
X5276088Y2528570D01*
X5269229Y2535428D01*
X5262118Y2538984D01*
X5248402Y2538984D01*
X5241290Y2535428D01*
X5234431Y2528570D01*
X5231129Y2521457D01*
X5227574Y2511297D01*
X5227574Y2493771D01*
X5231129Y2483357D01*
X5234431Y2476500D01*
X5241290Y2469642D01*
X5248402Y2466086D01*
X5262118Y2466086D01*
X5269229Y2469642D01*
X5276088Y2476500D01*
X5279390Y2483357D01*
X5302250Y2538984D02*
G01*
X5302250Y2466086D01*
X5302250Y2466086D02*
G01*
X5343906Y2466086D01*
X4953000Y1003300D02*
G01*
X4953000Y930402D01*
X4953000Y1003300D02*
G01*
X4984241Y1003300D01*
X4994656Y999744D01*
X4997958Y996187D01*
X5001513Y989329D01*
X5001513Y982471D01*
X4997958Y975613D01*
X4994656Y972057D01*
X4984241Y968502D01*
X4953000Y968502D01*
X4977129Y968502D02*
G01*
X5001513Y930402D01*
X5024374Y1003300D02*
G01*
X5072888Y930402D01*
X5072888Y1003300D02*
G01*
X5024374Y930402D01*
X2616200Y2721355D02*
G01*
X2616200Y2648457D01*
X2616200Y2721355D02*
G01*
X2647441Y2721355D01*
X2657856Y2717800D01*
X2661158Y2714244D01*
X2664713Y2707386D01*
X2664713Y2700528D01*
X2661158Y2693670D01*
X2657856Y2690113D01*
X2647441Y2686557D01*
X2616200Y2686557D02*
G01*
X2647441Y2686557D01*
X2657856Y2683255D01*
X2661158Y2679700D01*
X2664713Y2672842D01*
X2664713Y2662428D01*
X2661158Y2655570D01*
X2657856Y2652013D01*
X2647441Y2648457D01*
X2616200Y2648457D01*
X2715259Y2721355D02*
G01*
X2687574Y2648457D01*
X2715259Y2721355D02*
G01*
X2742945Y2648457D01*
X2697988Y2672842D02*
G01*
X2732531Y2672842D01*
X2790190Y2721355D02*
G01*
X2790190Y2648457D01*
X2765806Y2721355D02*
G01*
X2814320Y2721355D01*
X2921000Y2721355D02*
G01*
X2921000Y2648457D01*
X2921000Y2721355D02*
G01*
X2965958Y2721355D01*
X2921000Y2686557D02*
G01*
X2948686Y2686557D01*
X2921000Y2648457D02*
G01*
X2965958Y2648457D01*
X2988818Y2696971D02*
G01*
X2988818Y2648457D01*
X2988818Y2683255D02*
G01*
X2999231Y2693670D01*
X3006090Y2696971D01*
X3016504Y2696971D01*
X3023615Y2693670D01*
X3026918Y2683255D01*
X3026918Y2648457D01*
X3124200Y2721355D02*
G01*
X3124200Y2669286D01*
X3127756Y2658871D01*
X3134613Y2652013D01*
X3145027Y2648457D01*
X3151886Y2648457D01*
X3162300Y2652013D01*
X3169158Y2658871D01*
X3172713Y2669286D01*
X3172713Y2721355D01*
X3244088Y2710942D02*
G01*
X3237229Y2717800D01*
X3226815Y2721355D01*
X3212845Y2721355D01*
X3202431Y2717800D01*
X3195574Y2710942D01*
X3195574Y2703829D01*
X3199129Y2696971D01*
X3202431Y2693670D01*
X3209290Y2690113D01*
X3230118Y2683255D01*
X3237229Y2679700D01*
X3240531Y2676144D01*
X3244088Y2669286D01*
X3244088Y2658871D01*
X3237229Y2652013D01*
X3226815Y2648457D01*
X3212845Y2648457D01*
X3202431Y2652013D01*
X3195574Y2658871D01*
X3266947Y2721355D02*
G01*
X3266947Y2648457D01*
X3266947Y2721355D02*
G01*
X3298190Y2721355D01*
X3308350Y2717800D01*
X3311906Y2714244D01*
X3315461Y2707386D01*
X3315461Y2700528D01*
X3311906Y2693670D01*
X3308350Y2690113D01*
X3298190Y2686557D01*
X3266947Y2686557D02*
G01*
X3298190Y2686557D01*
X3308350Y2683255D01*
X3311906Y2679700D01*
X3315461Y2672842D01*
X3315461Y2662428D01*
X3311906Y2655570D01*
X3308350Y2652013D01*
X3298190Y2648457D01*
X3266947Y2648457D01*
X3429000Y2707386D02*
G01*
X3435858Y2710942D01*
X3446272Y2721355D01*
X3446272Y2648457D01*
X3503929Y2721355D02*
G01*
X3469131Y2672842D01*
X3521202Y2672842D01*
X3503929Y2721355D02*
G01*
X3503929Y2648457D01*
X5495543Y2721355D02*
G01*
X5461000Y2672842D01*
X5513070Y2672842D01*
X5495543Y2721355D02*
G01*
X5495543Y2648457D01*
X5598159Y2735071D02*
G01*
X5535929Y2624328D01*
X5509513Y2533142D02*
G01*
X5502656Y2540000D01*
X5492241Y2543555D01*
X5478272Y2543555D01*
X5467858Y2540000D01*
X5461000Y2533142D01*
X5461000Y2526029D01*
X5464556Y2519171D01*
X5467858Y2515870D01*
X5474970Y2512313D01*
X5495543Y2505455D01*
X5502656Y2501900D01*
X5505958Y2498344D01*
X5509513Y2491486D01*
X5509513Y2481071D01*
X5502656Y2474213D01*
X5492241Y2470657D01*
X5478272Y2470657D01*
X5467858Y2474213D01*
X5461000Y2481071D01*
X5532374Y2543555D02*
G01*
X5532374Y2470657D01*
X5532374Y2543555D02*
G01*
X5556504Y2543555D01*
X5566918Y2540000D01*
X5574029Y2533142D01*
X5577331Y2526029D01*
X5580888Y2515870D01*
X5580888Y2498344D01*
X5577331Y2487929D01*
X5574029Y2481071D01*
X5566918Y2474213D01*
X5556504Y2470657D01*
X5532374Y2470657D01*
X5631434Y2543555D02*
G01*
X5603747Y2470657D01*
X5631434Y2543555D02*
G01*
X5659120Y2470657D01*
X5614161Y2495042D02*
G01*
X5648706Y2495042D01*
X5231129Y994155D02*
G01*
X5231129Y921257D01*
X5207000Y994155D02*
G01*
X5255513Y994155D01*
X5278374Y994155D02*
G01*
X5326888Y921257D01*
X5326888Y994155D02*
G01*
X5278374Y921257D01*
X4699000Y2716529D02*
G01*
X4705858Y2720086D01*
X4716272Y2730500D01*
X4716272Y2657602D01*
X4780788Y2720086D02*
G01*
X4777231Y2726944D01*
X4766818Y2730500D01*
X4759959Y2730500D01*
X4749545Y2726944D01*
X4742688Y2716529D01*
X4739131Y2699257D01*
X4739131Y2681986D01*
X4742688Y2668015D01*
X4749545Y2661157D01*
X4759959Y2657602D01*
X4763515Y2657602D01*
X4773929Y2661157D01*
X4780788Y2668015D01*
X4784090Y2678429D01*
X4784090Y2681986D01*
X4780788Y2692400D01*
X4773929Y2699257D01*
X4763515Y2702813D01*
X4759959Y2702813D01*
X4749545Y2699257D01*
X4742688Y2692400D01*
X4739131Y2681986D01*
X2414270Y976629D02*
G01*
X2410713Y983742D01*
X2403856Y990600D01*
X2396743Y994155D01*
X2383027Y994155D01*
X2376170Y990600D01*
X2369058Y983742D01*
X2365756Y976629D01*
X2362200Y966470D01*
X2362200Y948944D01*
X2365756Y938529D01*
X2369058Y931671D01*
X2376170Y924813D01*
X2383027Y921257D01*
X2396743Y921257D01*
X2403856Y924813D01*
X2410713Y931671D01*
X2414270Y938529D01*
X2414270Y948944D01*
X2396743Y948944D02*
G01*
X2414270Y948944D01*
X2437129Y994155D02*
G01*
X2437129Y921257D01*
X2437129Y994155D02*
G01*
X2485390Y921257D01*
X2485390Y994155D02*
G01*
X2485390Y921257D01*
X2508250Y994155D02*
G01*
X2508250Y921257D01*
X2508250Y994155D02*
G01*
X2532634Y994155D01*
X2543047Y990600D01*
X2549906Y983742D01*
X2553461Y976629D01*
X2556763Y966470D01*
X2556763Y948944D01*
X2553461Y938529D01*
X2549906Y931671D01*
X2543047Y924813D01*
X2532634Y921257D01*
X2508250Y921257D01*
X5462270Y976629D02*
G01*
X5458713Y983742D01*
X5451856Y990600D01*
X5444743Y994155D01*
X5431027Y994155D01*
X5424170Y990600D01*
X5417058Y983742D01*
X5413756Y976629D01*
X5410200Y966470D01*
X5410200Y948944D01*
X5413756Y938529D01*
X5417058Y931671D01*
X5424170Y924813D01*
X5431027Y921257D01*
X5444743Y921257D01*
X5451856Y924813D01*
X5458713Y931671D01*
X5462270Y938529D01*
X5485129Y994155D02*
G01*
X5485129Y921257D01*
X5533390Y994155D02*
G01*
X5533390Y921257D01*
X5485129Y959357D02*
G01*
X5533390Y959357D01*
X5556250Y994155D02*
G01*
X5556250Y921257D01*
X5556250Y994155D02*
G01*
X5587491Y994155D01*
X5597906Y990600D01*
X5601461Y987044D01*
X5604763Y980186D01*
X5604763Y969771D01*
X5601461Y962913D01*
X5597906Y959357D01*
X5587491Y956055D01*
X5556250Y956055D01*
X5627624Y994155D02*
G01*
X5627624Y921257D01*
X5627624Y994155D02*
G01*
X5652008Y994155D01*
X5662422Y990600D01*
X5669279Y983742D01*
X5672836Y976629D01*
X5676138Y966470D01*
X5676138Y948944D01*
X5672836Y938529D01*
X5669279Y931671D01*
X5662422Y924813D01*
X5652008Y921257D01*
X5627624Y921257D01*
X5007356Y2703829D02*
G01*
X5007356Y2707386D01*
X5010658Y2714244D01*
X5014213Y2717800D01*
X5021072Y2721355D01*
X5035041Y2721355D01*
X5041900Y2717800D01*
X5045456Y2714244D01*
X5048758Y2707386D01*
X5048758Y2700528D01*
X5045456Y2693670D01*
X5038343Y2683255D01*
X5003800Y2648457D01*
X5052313Y2648457D01*
X3683000Y2707386D02*
G01*
X3689858Y2710942D01*
X3700272Y2721355D01*
X3700272Y2648457D01*
X3726688Y2703829D02*
G01*
X3726688Y2707386D01*
X3729990Y2714244D01*
X3733545Y2717800D01*
X3740404Y2721355D01*
X3754374Y2721355D01*
X3761231Y2717800D01*
X3764788Y2714244D01*
X3768090Y2707386D01*
X3768090Y2700528D01*
X3764788Y2693670D01*
X3757929Y2683255D01*
X3723131Y2648457D01*
X3771645Y2648457D01*
X3937000Y2707386D02*
G01*
X3943858Y2710942D01*
X3954272Y2721355D01*
X3954272Y2648457D01*
X3983990Y2721355D02*
G01*
X4022090Y2721355D01*
X4001515Y2693670D01*
X4011929Y2693670D01*
X4018788Y2690113D01*
X4022090Y2686557D01*
X4025645Y2676144D01*
X4025645Y2669286D01*
X4022090Y2658871D01*
X4015231Y2652013D01*
X4004818Y2648457D01*
X3994404Y2648457D01*
X3983990Y2652013D01*
X3980688Y2655570D01*
X3977131Y2662428D01*
X3530600Y1918715D02*
G01*
X3530600Y1840737D01*
X3535679Y1825244D01*
X3546093Y1814829D01*
X3561841Y1809750D01*
X3572256Y1809750D01*
X3587750Y1814829D01*
X3598163Y1825244D01*
X3603243Y1840737D01*
X3603243Y1918715D01*
X3637534Y1897887D02*
G01*
X3647947Y1903221D01*
X3663695Y1918715D01*
X3663695Y1809750D01*
X6350000Y2845815D02*
G01*
X6350000Y2736850D01*
X6350000Y2845815D02*
G01*
X6391656Y2736850D01*
X6433058Y2845815D02*
G01*
X6391656Y2736850D01*
X6433058Y2845815D02*
G01*
X6433058Y2736850D01*
X6467347Y2824987D02*
G01*
X6477761Y2830321D01*
X6493509Y2845815D01*
X6493509Y2736850D01*
X6946900Y2858515D02*
G01*
X6946900Y2749550D01*
X6946900Y2858515D02*
G01*
X6988556Y2749550D01*
X7029958Y2858515D02*
G01*
X6988556Y2749550D01*
X7029958Y2858515D02*
G01*
X7029958Y2749550D01*
X7069581Y2832607D02*
G01*
X7069581Y2837687D01*
X7074661Y2848102D01*
X7079995Y2853436D01*
X7090409Y2858515D01*
X7110984Y2858515D01*
X7121397Y2853436D01*
X7126731Y2848102D01*
X7131811Y2837687D01*
X7131811Y2827273D01*
X7126731Y2816860D01*
X7116318Y2801365D01*
X7064247Y2749550D01*
X7137145Y2749550D01*
D21*
X6807200Y1768855D02*
G01*
X6807200Y1695957D01*
X6807200Y1768855D02*
G01*
X6852158Y1768855D01*
X6807200Y1734057D02*
G01*
X6834886Y1734057D01*
X6807200Y1695957D02*
G01*
X6852158Y1695957D01*
X6875018Y1768855D02*
G01*
X6875018Y1695957D01*
X6875018Y1768855D02*
G01*
X6923531Y1695957D01*
X6923531Y1768855D02*
G01*
X6923531Y1695957D01*
X6731000Y1502155D02*
G01*
X6758686Y1429257D01*
X6786372Y1502155D02*
G01*
X6758686Y1429257D01*
X6861302Y1484629D02*
G01*
X6857745Y1491742D01*
X6850888Y1498600D01*
X6844029Y1502155D01*
X6830059Y1502155D01*
X6823202Y1498600D01*
X6816090Y1491742D01*
X6812788Y1484629D01*
X6809231Y1474470D01*
X6809231Y1456944D01*
X6812788Y1446529D01*
X6816090Y1439671D01*
X6823202Y1432813D01*
X6830059Y1429257D01*
X6844029Y1429257D01*
X6850888Y1432813D01*
X6857745Y1439671D01*
X6861302Y1446529D01*
X6935977Y1484629D02*
G01*
X6932675Y1491742D01*
X6925563Y1498600D01*
X6918706Y1502155D01*
X6904990Y1502155D01*
X6897877Y1498600D01*
X6891020Y1491742D01*
X6887463Y1484629D01*
X6884161Y1474470D01*
X6884161Y1456944D01*
X6887463Y1446529D01*
X6891020Y1439671D01*
X6897877Y1432813D01*
X6904990Y1429257D01*
X6918706Y1429257D01*
X6925563Y1432813D01*
X6932675Y1439671D01*
X6935977Y1446529D01*
X6490970Y1243329D02*
G01*
X6487413Y1250442D01*
X6480556Y1257300D01*
X6473443Y1260855D01*
X6459727Y1260855D01*
X6452870Y1257300D01*
X6445758Y1250442D01*
X6442456Y1243329D01*
X6438900Y1233170D01*
X6438900Y1215644D01*
X6442456Y1205229D01*
X6445758Y1198371D01*
X6452870Y1191513D01*
X6459727Y1187957D01*
X6473443Y1187957D01*
X6480556Y1191513D01*
X6487413Y1198371D01*
X6490970Y1205229D01*
X6490970Y1215644D01*
X6473443Y1215644D02*
G01*
X6490970Y1215644D01*
X6513829Y1260855D02*
G01*
X6513829Y1187957D01*
X6513829Y1260855D02*
G01*
X6562090Y1187957D01*
X6562090Y1260855D02*
G01*
X6562090Y1187957D01*
X6584950Y1260855D02*
G01*
X6584950Y1187957D01*
X6584950Y1260855D02*
G01*
X6609334Y1260855D01*
X6619747Y1257300D01*
X6626606Y1250442D01*
X6630161Y1243329D01*
X6633463Y1233170D01*
X6633463Y1215644D01*
X6630161Y1205229D01*
X6626606Y1198371D01*
X6619747Y1191513D01*
X6609334Y1187957D01*
X6584950Y1187957D01*
X6451600Y1502155D02*
G01*
X6479286Y1429257D01*
X6506972Y1502155D02*
G01*
X6479286Y1429257D01*
X6529831Y1502155D02*
G01*
X6529831Y1429257D01*
X6552691Y1502155D02*
G01*
X6552691Y1429257D01*
X6552691Y1502155D02*
G01*
X6601206Y1429257D01*
X6601206Y1502155D02*
G01*
X6601206Y1429257D01*
X6485127Y1768855D02*
G01*
X6478270Y1765300D01*
X6471158Y1758442D01*
X6467856Y1751329D01*
X6464300Y1741170D01*
X6464300Y1723644D01*
X6467856Y1713229D01*
X6471158Y1706371D01*
X6478270Y1699513D01*
X6485127Y1695957D01*
X6498843Y1695957D01*
X6505956Y1699513D01*
X6512813Y1706371D01*
X6516370Y1713229D01*
X6519672Y1723644D01*
X6519672Y1741170D01*
X6516370Y1751329D01*
X6512813Y1758442D01*
X6505956Y1765300D01*
X6498843Y1768855D01*
X6485127Y1768855D01*
X6546088Y1751329D02*
G01*
X6546088Y1754886D01*
X6549390Y1761744D01*
X6552945Y1765300D01*
X6559804Y1768855D01*
X6573774Y1768855D01*
X6580631Y1765300D01*
X6584188Y1761744D01*
X6587490Y1754886D01*
X6587490Y1748028D01*
X6584188Y1741170D01*
X6577329Y1730755D01*
X6542531Y1695957D01*
X6591045Y1695957D01*
X6497827Y2022855D02*
G01*
X6490970Y2019300D01*
X6483858Y2012442D01*
X6480556Y2005329D01*
X6477000Y1995170D01*
X6477000Y1977644D01*
X6480556Y1967229D01*
X6483858Y1960371D01*
X6490970Y1953513D01*
X6497827Y1949957D01*
X6511543Y1949957D01*
X6518656Y1953513D01*
X6525513Y1960371D01*
X6529070Y1967229D01*
X6532372Y1977644D01*
X6532372Y1995170D01*
X6529070Y2005329D01*
X6525513Y2012442D01*
X6518656Y2019300D01*
X6511543Y2022855D01*
X6497827Y2022855D01*
X6555231Y2008886D02*
G01*
X6562090Y2012442D01*
X6572504Y2022855D01*
X6572504Y1949957D01*
X6451600Y2264155D02*
G01*
X6479286Y2191257D01*
X6506972Y2264155D02*
G01*
X6479286Y2191257D01*
X6529831Y2264155D02*
G01*
X6529831Y2191257D01*
X6529831Y2264155D02*
G01*
X6557518Y2191257D01*
X6585204Y2264155D02*
G01*
X6557518Y2191257D01*
X6585204Y2264155D02*
G01*
X6585204Y2191257D01*
X6769100Y2239771D02*
G01*
X6769100Y2191257D01*
X6769100Y2226055D02*
G01*
X6779513Y2236470D01*
X6786372Y2239771D01*
X6796786Y2239771D01*
X6803643Y2236470D01*
X6807200Y2226055D01*
X6807200Y2191257D01*
X6878574Y2253742D02*
G01*
X6871715Y2260600D01*
X6861302Y2264155D01*
X6847331Y2264155D01*
X6836918Y2260600D01*
X6830059Y2253742D01*
X6830059Y2246629D01*
X6833615Y2239771D01*
X6836918Y2236470D01*
X6844029Y2232913D01*
X6864604Y2226055D01*
X6871715Y2222500D01*
X6875018Y2218944D01*
X6878574Y2212086D01*
X6878574Y2201671D01*
X6871715Y2194813D01*
X6861302Y2191257D01*
X6847331Y2191257D01*
X6836918Y2194813D01*
X6830059Y2201671D01*
X6901434Y2264155D02*
G01*
X6901434Y2191257D01*
X6901434Y2264155D02*
G01*
X6932675Y2264155D01*
X6943090Y2260600D01*
X6946391Y2257044D01*
X6949947Y2250186D01*
X6949947Y2239771D01*
X6946391Y2232913D01*
X6943090Y2229357D01*
X6932675Y2226055D01*
X6901434Y2226055D01*
X6756400Y2022855D02*
G01*
X6756400Y1949957D01*
X6756400Y2022855D02*
G01*
X6787641Y2022855D01*
X6798056Y2019300D01*
X6801358Y2015744D01*
X6804913Y2008886D01*
X6804913Y1998471D01*
X6801358Y1991613D01*
X6798056Y1988057D01*
X6787641Y1984755D01*
X6756400Y1984755D01*
X6827774Y2022855D02*
G01*
X6827774Y1949957D01*
X6876288Y2022855D02*
G01*
X6876288Y1949957D01*
X6827774Y1988057D02*
G01*
X6876288Y1988057D01*
X6947661Y2012442D02*
G01*
X6940550Y2019300D01*
X6930390Y2022855D01*
X6916420Y2022855D01*
X6906006Y2019300D01*
X6899147Y2012442D01*
X6899147Y2005329D01*
X6902450Y1998471D01*
X6906006Y1995170D01*
X6912863Y1991613D01*
X6933691Y1984755D01*
X6940550Y1981200D01*
X6944106Y1977644D01*
X6947661Y1970786D01*
X6947661Y1960371D01*
X6940550Y1953513D01*
X6930390Y1949957D01*
X6916420Y1949957D01*
X6906006Y1953513D01*
X6899147Y1960371D01*
X6795770Y1243329D02*
G01*
X6792213Y1250442D01*
X6785356Y1257300D01*
X6778243Y1260855D01*
X6764527Y1260855D01*
X6757670Y1257300D01*
X6750558Y1250442D01*
X6747256Y1243329D01*
X6743700Y1233170D01*
X6743700Y1215644D01*
X6747256Y1205229D01*
X6750558Y1198371D01*
X6757670Y1191513D01*
X6764527Y1187957D01*
X6778243Y1187957D01*
X6785356Y1191513D01*
X6792213Y1198371D01*
X6795770Y1205229D01*
X6795770Y1215644D01*
X6778243Y1215644D02*
G01*
X6795770Y1215644D01*
X6818629Y1260855D02*
G01*
X6818629Y1187957D01*
X6818629Y1260855D02*
G01*
X6866890Y1187957D01*
X6866890Y1260855D02*
G01*
X6866890Y1187957D01*
X6889750Y1260855D02*
G01*
X6889750Y1187957D01*
X6889750Y1260855D02*
G01*
X6914134Y1260855D01*
X6924547Y1257300D01*
X6931406Y1250442D01*
X6934961Y1243329D01*
X6938263Y1233170D01*
X6938263Y1215644D01*
X6934961Y1205229D01*
X6931406Y1198371D01*
X6924547Y1191513D01*
X6914134Y1187957D01*
X6889750Y1187957D01*
D19*
X6616700Y1029715D02*
G01*
X6616700Y951737D01*
X6621779Y936244D01*
X6632193Y925829D01*
X6647941Y920750D01*
X6658356Y920750D01*
X6673850Y925829D01*
X6684263Y936244D01*
X6689343Y951737D01*
X6689343Y1029715D01*
X6728968Y1003807D02*
G01*
X6728968Y1008887D01*
X6734047Y1019302D01*
X6739381Y1024636D01*
X6749795Y1029715D01*
X6770370Y1029715D01*
X6780784Y1024636D01*
X6786118Y1019302D01*
X6791197Y1008887D01*
X6791197Y998473D01*
X6786118Y988060D01*
X6775704Y972565D01*
X6723634Y920750D01*
X6796531Y920750D01*
D18*
X6818299Y612394D02*
G01*
X6618300Y612394D01*
X6618300Y562406D01*
X6423304Y562406D01*
X6423304Y1012393D01*
X7013295Y1012393D01*
X7013295Y562406D01*
X6818299Y562406D01*
X6818299Y612394D01*
D19*
X1320800Y673100D02*
G01*
X5892800Y673100D01*
D20*
X2590800Y2959100D02*
G01*
X2781300Y2959100D01*
X5448300Y673100D02*
G01*
X1574800Y673100D01*
X5638800Y673100D02*
G01*
X5448300Y673100D01*
D19*
X1066800Y2705100D02*
G01*
X1066800Y2070100D01*
X1117600Y2019300D01*
X1117600Y1612900D01*
X1066800Y1562100D01*
X1066800Y927100D01*
X5892800Y2959100D02*
G01*
X1320800Y2959100D01*
X6146800Y927100D02*
G01*
X6146800Y2705100D01*
D18*
X7200900Y1092200D02*
G01*
X6184900Y1092200D01*
X6184900Y2362200D01*
X7200900Y2362200D02*
G01*
X6184900Y2362200D01*
X7200900Y2362200D02*
G01*
X7200900Y1092200D01*
D19*
G75*
G01*
X5892790Y673100D02*
G03*
X6146790Y927100I0J253999D01*
G75*
G01*
X6146790Y2705095D02*
G03*
X5892790Y2959095I-254000J0D01*
G75*
G01*
X1320800Y2959095D02*
G03*
X1066800Y2705095I-1J-254000D01*
G75*
G01*
X1066800Y927100D02*
G03*
X1320800Y673100I253999J-1D01*
D10*
G75*
G01
X1447800Y2705100D02*
G03X1447800Y2705100I-127000J0D01*
G75*
G01
X1447800Y927100D02*
G03X1447800Y927100I-127000J0D01*
G75*
G01
X6019800Y927100D02*
G03X6019800Y927100I-127000J0D01*
G75*
G01
X6019800Y2705100D02*
G03X6019800Y2705100I-127000J0D01*
M02*
