G04 Layer: BottomLayer*
G04 EasyEDA v6.4.31, 2022-03-01 11:20:37*
G04 6713203271664cd18529d9af3764870e,10*
G04 Gerber Generator version 0.2*
G04 Scale: 100 percent, Rotated: No, Reflected: No *
G04 Dimensions in millimeters *
G04 leading zeros omitted , absolute positions ,4 integer and 5 decimal *
%FSLAX45Y45*%
%MOMM*%

%ADD13C,1.6256*%
%ADD14C,1.4986*%
%ADD15C,1.0000*%
%ADD16C,1.5240*%
%ADD17C,0.6000*%

%LPD*%
D15*
X1955800Y800100D02*
G01*
X1955800Y647700D01*
X2006600Y596900D01*
X6070600Y596900D01*
X6870700Y1473200D01*
X7061200Y1473200D01*
X2463800Y800100D02*
G01*
X2463800Y977900D01*
X2705100Y1219200D01*
X6324600Y1219200D01*
X2717800Y2832100D02*
G01*
X2717800Y1803400D01*
X3048000Y1473200D01*
X6324600Y1473200D01*
D17*
X3733800Y2832100D02*
G01*
X3733800Y2692400D01*
X4000500Y2425700D01*
X6451600Y2413000D01*
X6858000Y1727200D01*
X7061200Y1727200D01*
X3987800Y2832100D02*
G01*
X3987800Y2616200D01*
X4064000Y2540000D01*
X6553200Y2527300D01*
X6883400Y1981200D01*
X7061200Y1981200D01*
D13*
G01*
X6618300Y732409D03*
G01*
X6818299Y732409D03*
D14*
G01*
X5511800Y800100D03*
G01*
X5257800Y800100D03*
G01*
X5003800Y800100D03*
G01*
X4749800Y800100D03*
G01*
X4495800Y800100D03*
G01*
X4241800Y800100D03*
G01*
X3987800Y800100D03*
G01*
X3733800Y800100D03*
G01*
X3479800Y800100D03*
G01*
X3225800Y800100D03*
G01*
X2971800Y800100D03*
G01*
X2717800Y800100D03*
G01*
X2463800Y800100D03*
G01*
X2209800Y800100D03*
G01*
X1955800Y800100D03*
G01*
X1701800Y800100D03*
G01*
X5511800Y2832100D03*
G01*
X5257800Y2832100D03*
G01*
X5003800Y2832100D03*
G01*
X4749800Y2832100D03*
G01*
X4495800Y2832100D03*
G01*
X4241800Y2832100D03*
G01*
X3987800Y2832100D03*
G01*
X3733800Y2832100D03*
G01*
X3479800Y2832100D03*
G01*
X3225800Y2832100D03*
G01*
X2971800Y2832100D03*
G01*
X2717800Y2832100D03*
D15*
G01*
X6604000Y2794000D03*
G01*
X6858000Y2794000D03*
D16*
G01*
X7061200Y1473200D03*
G01*
X7061200Y1727200D03*
G01*
X7061200Y1981200D03*
G01*
X7061200Y2235200D03*
G01*
X6324600Y2235200D03*
G01*
X6324600Y1981200D03*
G01*
X6324600Y1727200D03*
G01*
X6324600Y1473200D03*
G01*
X6324600Y1219200D03*
G01*
X7061200Y1219200D03*
M02*
