G04 Layer: TopSolderMaskLayer*
G04 EasyEDA v6.4.31, 2022-03-09 14:54:07*
G04 Gerber Generator version 0.2*
G04 Scale: 100 percent, Rotated: No, Reflected: No *
G04 Dimensions in millimeters *
G04 leading zeros omitted , absolute positions ,4 integer and 5 decimal *
%FSLAX45Y45*%
%MOMM*%

%ADD22C,1.7032*%
%ADD23C,2.1040*%

%LPD*%
D22*
G01*
X6618300Y732409D03*
G01*
X6818299Y732409D03*
D23*
G01*
X5511800Y800100D03*
G01*
X5257800Y800100D03*
G01*
X5003800Y800100D03*
G01*
X4749800Y800100D03*
G01*
X4495800Y800100D03*
G01*
X4241800Y800100D03*
G01*
X3987800Y800100D03*
G01*
X3733800Y800100D03*
G01*
X3479800Y800100D03*
G01*
X3225800Y800100D03*
G01*
X2971800Y800100D03*
G01*
X2717800Y800100D03*
G01*
X2463800Y800100D03*
G01*
X2209800Y800100D03*
G01*
X1955800Y800100D03*
G01*
X1701800Y800100D03*
G01*
X5511800Y2832100D03*
G01*
X5257800Y2832100D03*
G01*
X5003800Y2832100D03*
G01*
X4749800Y2832100D03*
G01*
X4495800Y2832100D03*
G01*
X4241800Y2832100D03*
G01*
X3987800Y2832100D03*
G01*
X3733800Y2832100D03*
G01*
X3479800Y2832100D03*
G01*
X3225800Y2832100D03*
G01*
X2971800Y2832100D03*
G01*
X2717800Y2832100D03*
G01*
X6604000Y2794000D03*
G01*
X6858000Y2794000D03*
G01*
X7061200Y1473200D03*
G01*
X7061200Y1727200D03*
G01*
X7061200Y1981200D03*
G01*
X7061200Y2235200D03*
G01*
X6324600Y2235200D03*
G01*
X6324600Y1981200D03*
G01*
X6324600Y1727200D03*
G01*
X6324600Y1473200D03*
G01*
X6324600Y1219200D03*
G01*
X7061200Y1219200D03*
M02*
